<?xml version="1.0" standalone="no"?> <!DOCTYPE svg PUBLIC "-//W3C//DTD SVG 1.0//EN" "http://www.w3.org/TR/2001/REC-SVG-20010904/DTD/svg10.dtd" > <svg xmlns="http://www.w3.org/2000/svg" width="100%" height="100%">
<defs >
<font horiz-adv-x="2005" ><font-face
    font-family="UD Digi Kyokasho NK-R"
    units-per-em="2048"
    panose-1="2 2 4 0 0 0 0 0 0 0"
    ascent="1802"
    descent="-567"
    alphabetic="0" />
<missing-glyph horiz-adv-x="748" d="M68 0V1365H612V0H68ZM136 68H544V1297H136V68Z" />
<glyph unicode=" " glyph-name="uni00A0" horiz-adv-x="614" />
<glyph unicode="!" glyph-name="exclam" horiz-adv-x="737" d="M434 528Q429 453 369 453Q307 453 303 528L258 1423V1430Q259 1464 276 1486Q309 1528 369 1528Q444 1528 471 1468Q479 1451 479 1429Q479 1426 479 1423L434 528ZM369 330Q407 330 441 309Q510
268 510 188Q510 134 473 93Q431 47 367 47Q332 47 301 64Q227 105 227 189Q227 250 270 291Q312 330 369 330Z" />
<glyph unicode="&quot;" glyph-name="quotedbl" horiz-adv-x="901" d="M188 1491Q188 1522 206 1541Q232 1569 276 1569Q344 1569 360 1517Q365 1504 364 1491L342 1042Q336 993 276 993Q213 993 211 1042L188 1491ZM536 1491Q536 1522 554 1541Q580 1569 624
1569Q691 1569 709 1517Q713 1505 712 1491L690 1042Q684 993 624 993Q561 993 559 1042L536 1491Z" />
<glyph unicode="#" glyph-name="numbersign" horiz-adv-x="1638" d="M561 1182L610 1510Q619 1570 672 1570Q746 1570 746 1504Q746 1495 745 1491L698 1182H1059L1108 1510Q1117 1570 1170 1570Q1244 1570 1244 1504Q1244 1497 1243 1491L1196 1182H1405Q1462
1182 1462 1117Q1462 1080 1436 1061Q1424 1051 1405 1051H1178L1096 506H1311Q1370 506 1370 440Q1370 405 1346 386Q1332 375 1311 375H1077L1014 -45Q1004 -108 947 -108Q929 -108 912 -101Q873 -84 873 -44Q873 -34 874 -24L936 375H580L516 -45Q507 -108 449
-108Q431 -108 414 -101Q375 -84 375 -44Q375 -36 377 -24L438 375H231Q211 375 197 386Q172 406 172 440Q172 475 197 495Q211 506 231 506H457L541 1051H322Q300 1051 286 1064Q264 1083 264 1118Q264 1182 322 1182H561ZM680 1051L598 506H954L1038 1051H680Z"
/>
<glyph unicode="$" glyph-name="dollar" horiz-adv-x="1352" d="M595 1485V1593Q595 1619 611 1637Q632 1659 668 1659Q709 1659 728 1629Q738 1613 738 1593V1483Q946 1462 1100 1332Q1141 1298 1141 1259Q1141 1229 1121 1208Q1096 1181 1064 1181Q1034 1181
991 1220Q884 1317 738 1335V868Q933 809 1026 755Q1209 649 1209 463Q1209 239 1009 137Q906 84 738 70V-37Q738 -55 729 -70Q709 -102 668 -102Q624 -102 604 -70Q595 -55 595 -37V70Q339 92 181 251Q128 304 128 342Q128 369 147 391Q172 420 206 420Q239 420
281 375Q359 291 445 256Q506 231 595 221V758Q427 810 315 883Q173 975 173 1128Q173 1310 338 1410Q434 1468 595 1485ZM738 717V221Q1035 253 1035 462Q1035 568 928 633Q863 673 738 717ZM595 1335Q341 1308 341 1136Q341 1047 429 984Q483 947 595 909V1335Z"
/>
<glyph unicode="%" glyph-name="percent" horiz-adv-x="1884" d="M1540 1452L451 39Q431 13 398 13Q381 13 364 22Q335 38 335 75Q335 92 344 104L1434 1518Q1454 1544 1484 1544Q1505 1544 1521 1535Q1550 1517 1550 1482Q1550 1464 1540 1452ZM463 1528Q623
1528 720 1401Q809 1286 809 1106Q809 985 767 889Q729 803 661 751Q576 684 460 684Q309 684 212 798Q113 914 113 1107Q113 1274 190 1385Q289 1528 463 1528ZM460 1395Q369 1395 313 1315Q256 1233 256 1106Q256 1005 292 932Q349 817 462 817Q553 817 609 897Q666
978 666 1105Q666 1231 612 1311Q555 1395 460 1395ZM1426 872Q1586 872 1683 745Q1772 630 1772 451Q1772 329 1730 234Q1638 29 1423 29Q1272 29 1175 143Q1076 259 1076 452Q1076 618 1153 729Q1252 872 1426 872ZM1423 739Q1332 739 1276 659Q1219 578 1219
450Q1219 350 1255 276Q1312 162 1425 162Q1516 162 1572 242Q1629 323 1629 450Q1629 575 1575 655Q1518 739 1423 739Z" />
<glyph unicode="&amp;" glyph-name="ampersand" horiz-adv-x="1516" d="M1239 360L1430 178Q1457 152 1457 116Q1457 79 1429 55Q1406 35 1376 35Q1342 35 1315 61L1141 233Q933 27 649 27Q423 27 281 131Q217 178 176 247Q121 338 121 442Q121 600 250 719Q333
796 496 870Q416 954 378 1020Q324 1110 324 1212Q324 1358 444 1447Q553 1528 705 1528Q828 1528 921 1465Q1057 1372 1057 1207Q1057 1060 952 962Q884 899 746 831L1116 477Q1184 599 1209 749Q1222 828 1292 828Q1332 828 1357 799Q1375 778 1375 750Q1375
706 1342 595Q1306 472 1239 360ZM602 764Q434 682 371 626Q287 550 287 443Q287 332 383 258Q484 181 643 181Q860 181 1024 348L602 764ZM639 934Q759 989 815 1040Q891 1109 891 1209Q891 1278 844 1324Q787 1381 698 1381Q630 1381 578 1351Q492 1303 492 1206Q492
1098 591 985Q636 933 639 934Z" />
<glyph unicode="&apos;" glyph-name="quotesingle" horiz-adv-x="573" d="M199 1491Q199 1522 217 1541Q243 1569 287 1569Q355 1569 371 1517Q376 1504 375 1491L353 1042Q347 993 287 993Q224 993 222 1042L199 1491Z" />
<glyph unicode="(" glyph-name="parenleft" horiz-adv-x="922" d="M721 1528Q778 1528 778 1471Q778 1448 757 1426Q753 1422 705 1377Q604 1282 522 1117Q394 859 394 546Q394 283 490 50Q586 -181 742 -315Q778 -346 778 -374Q778 -393 766 -410Q750 -431 721
-431Q675 -431 577 -328Q447 -190 358 11Q240 279 240 550Q240 851 385 1143Q500 1374 665 1505Q693 1528 721 1528Z" />
<glyph unicode=")" glyph-name="parenright" horiz-adv-x="922" d="M201 1528Q245 1528 344 1424Q474 1287 563 1086Q682 817 682 548Q682 274 558 -1Q444 -252 269 -398Q229 -431 199 -431Q173 -431 157 -413Q143 -396 143 -374Q143 -351 165 -329Q168 -325 216
-280Q317 -185 399 -20Q528 238 528 549Q528 880 381 1151Q299 1303 172 1419Q143 1445 143 1471Q143 1490 155 1507Q171 1528 201 1528Z" />
<glyph unicode="*" glyph-name="asterisk" horiz-adv-x="942" d="M440 1180L426 1233Q386 1379 386 1429Q386 1453 402 1472Q427 1501 471 1501Q502 1501 526 1485Q556 1464 556 1427Q556 1381 516 1233L502 1180L539 1221Q665 1361 731 1361Q783 1361 809 1317Q821
1297 821 1276Q821 1227 765 1200Q689 1163 586 1147L518 1137L586 1126Q689 1111 771 1070Q821 1046 821 998Q821 973 805 950Q779 912 732 912Q665 912 539 1053L502 1094L516 1040Q556 892 556 846Q556 805 521 784Q500 772 472 772Q421 772 398 806Q386 824
386 845Q386 893 426 1040L440 1094L403 1053Q277 912 211 912Q159 912 133 956Q121 976 121 997Q121 1047 177 1073Q256 1111 356 1126L424 1137L356 1147Q121 1183 121 1275Q121 1300 137 1323Q163 1361 210 1361Q277 1361 403 1221L440 1180Z" />
<glyph unicode="+" glyph-name="plus" horiz-adv-x="1556" d="M713 844V1366Q713 1382 720 1395Q738 1426 778 1426Q813 1426 833 1401Q844 1387 844 1366V844H1368Q1383 844 1397 836Q1428 819 1428 779Q1428 744 1403 724Q1389 713 1368 713H844V191Q844 165
826 148T778 131Q744 131 724 156Q713 170 713 191V713H189Q173 713 160 720Q129 738 129 779Q129 813 154 833Q168 844 189 844H713Z" />
<glyph unicode="," glyph-name="comma" horiz-adv-x="672" d="M330 362Q390 362 437 321Q495 271 495 181Q495 34 405 -99Q348 -184 277 -224Q256 -236 236 -236Q216 -236 201 -221T185 -186Q185 -165 220 -141Q291 -92 324 10Q331 33 331 42Q331 58 295 61Q242
65 211 105Q178 147 178 211Q178 280 228 325Q270 362 330 362Z" />
<glyph unicode="-" glyph-name="hyphen" horiz-adv-x="1126" d="M199 799H928Q948 799 964 790Q1002 768 1002 717Q1002 671 970 648Q953 635 928 635H199Q178 635 162 644Q125 666 125 717Q125 763 157 786Q174 799 199 799Z" />
<glyph unicode="." glyph-name="period" horiz-adv-x="672" d="M336 362Q377 362 414 340Q493 294 493 205Q493 162 470 123Q423 47 334 47Q275 47 229 89Q178 136 178 205Q178 280 238 328Q281 362 336 362Z" />
<glyph unicode="/" glyph-name="slash" horiz-adv-x="1024" d="M887 1423L256 -381Q239 -430 194 -430Q129 -430 129 -369Q129 -349 137 -326L768 1477Q786 1527 828 1527Q851 1527 871 1514Q895 1497 895 1465Q895 1447 887 1423Z" />
<glyph unicode="0" glyph-name="zero" horiz-adv-x="1352" d="M678 1528Q927 1528 1085 1316Q1239 1109 1239 792Q1239 539 1157 356Q1103 236 1014 156Q872 27 674 27Q394 27 237 277Q113 476 113 793Q113 1111 268 1318Q426 1528 678 1528ZM674 1372Q499 1372
392 1203Q291 1042 291 780Q291 538 374 383Q480 185 677 185Q864 185 971 371Q1061 527 1061 779Q1061 1025 971 1184Q864 1372 674 1372Z" />
<glyph unicode="1" glyph-name="one" horiz-adv-x="1352" d="M764 1427V129Q764 94 741 71Q716 47 676 47Q617 47 595 94Q588 109 588 129V1427Q588 1468 619 1491Q643 1509 676 1509Q725 1509 750 1474Q764 1455 764 1427Z" />
<glyph unicode="2" glyph-name="two" horiz-adv-x="1352" d="M366 217H1136Q1218 217 1218 139Q1218 61 1136 61H293Q174 61 174 169Q174 233 234 300Q362 442 678 727Q843 877 895 937Q985 1043 985 1135Q985 1250 904 1314Q825 1378 691 1378Q479 1378 380 1186Q350
1127 297 1127Q273 1127 249 1139Q210 1158 210 1208Q210 1251 251 1312Q313 1406 424 1464Q545 1528 693 1528Q875 1528 1003 1446Q1173 1339 1173 1132Q1173 1000 1070 877Q1020 818 824 648Q503 370 366 217Z" />
<glyph unicode="3" glyph-name="three" horiz-adv-x="1352" d="M842 829Q960 811 1036 759Q1190 653 1190 459Q1190 246 1023 127Q882 27 666 27Q387 27 219 191Q158 250 158 296Q158 328 187 351Q213 373 243 373Q277 373 319 323Q377 252 482 211Q566 179 665
179Q789 179 879 231Q1012 309 1012 458Q1012 585 934 662Q877 718 791 734Q724 746 603 746L566 745Q475 745 475 819Q475 873 521 885Q536 889 575 889Q953 889 953 1150Q953 1260 871 1323Q792 1383 660 1383Q454 1383 359 1239Q334 1203 295 1203Q267 1203
242 1221Q210 1244 210 1279Q210 1315 255 1364Q316 1429 406 1472Q527 1528 663 1528Q818 1528 932 1466Q1125 1361 1125 1147Q1125 934 916 851Q890 841 842 829Z" />
<glyph unicode="4" glyph-name="four" horiz-adv-x="1352" d="M817 365H221Q148 365 113 413Q97 435 97 466Q97 508 125 558L633 1482Q652 1517 692 1517Q724 1517 752 1496Q781 1473 781 1442Q781 1417 764 1385L284 517H817V1131Q817 1152 826 1168Q849 1205
901 1205Q947 1205 972 1173Q985 1156 985 1131V517H1194Q1274 517 1274 441Q1274 365 1194 365H985V123Q985 92 963 71Q939 48 901 48Q853 48 828 84Q817 100 817 123V365Z" />
<glyph unicode="5" glyph-name="five" horiz-adv-x="1352" d="M381 889Q427 935 490 966Q592 1016 702 1016Q887 1016 1019 907Q1182 771 1182 541Q1182 344 1068 205Q921 27 670 27Q440 27 285 142Q208 199 208 249Q208 275 225 297Q250 328 286 328Q315 328
364 286Q489 179 671 179Q806 179 898 265Q1010 369 1010 546Q1010 689 931 776Q842 875 686 875Q498 875 385 721Q355 680 305 680Q288 680 272 686Q219 705 219 771Q219 774 219 778L238 1353Q242 1495 397 1495H1055Q1082 1495 1100 1477Q1124 1453 1124 1417Q1124
1370 1089 1348Q1074 1339 1055 1339H457Q422 1339 409 1329T395 1290L381 889Z" />
<glyph unicode="6" glyph-name="six" horiz-adv-x="1352" d="M324 745Q357 801 395 838Q529 969 722 969Q903 969 1031 867Q1194 738 1194 518Q1194 370 1121 252Q1045 129 911 70Q814 27 699 27Q431 27 275 237Q162 389 162 604Q162 1016 501 1338Q614 1445 744
1520Q776 1539 805 1539Q844 1539 867 1508Q884 1483 884 1458Q884 1418 813 1378Q560 1234 417 980Q357 874 324 745ZM701 824Q544 824 431 695Q355 607 355 506Q355 361 455 269Q551 181 692 181Q850 181 942 288Q1022 380 1022 519Q1022 701 877 781Q800 824
701 824Z" />
<glyph unicode="7" glyph-name="seven" horiz-adv-x="1352" d="M286 1495H1038Q1085 1495 1116 1476Q1165 1446 1165 1387Q1165 1355 1113 1211Q859 506 746 133Q720 44 652 44Q618 44 595 64Q571 84 571 121Q571 142 604 242Q808 863 961 1273Q974 1307 974 1319Q974
1339 938 1339H340Q309 1339 309 1308V1060Q309 1040 300 1024Q278 987 227 987Q181 987 158 1019Q145 1036 145 1060V1353Q145 1495 286 1495Z" />
<glyph unicode="8" glyph-name="eight" horiz-adv-x="1352" d="M512 831Q371 889 287 972Q189 1069 189 1178Q189 1328 332 1432Q466 1528 662 1528Q976 1528 1197 1258Q1230 1218 1230 1176Q1230 1135 1201 1114Q1179 1097 1148 1097Q1126 1097 1108 1108Q902
939 785 860Q1188 681 1188 424Q1188 246 1050 138Q910 27 668 27Q452 27 316 117Q158 221 158 414Q158 530 251 641Q344 752 512 831ZM1006 1225Q879 1385 659 1385Q528 1385 442 1326Q359 1268 359 1184Q359 1016 641 930Q706 967 802 1044Q925 1141 1006 1225ZM658
762Q481 674 393 565Q330 487 330 413Q330 298 430 234Q521 177 667 177Q804 177 895 231Q1014 301 1014 428Q1014 558 837 675Q772 718 693 749L658 762Z" />
<glyph unicode="9" glyph-name="nine" horiz-adv-x="1352" d="M881 743Q743 588 539 588Q354 588 237 712Q115 840 115 1036Q115 1245 269 1387Q424 1528 651 1528Q898 1528 1041 1401Q1070 1464 1127 1464Q1156 1464 1178 1448Q1203 1430 1203 1395Q1203 1382
1198 1364L877 104Q862 45 800 45Q760 45 733 66Q706 86 706 122Q706 139 711 156L881 743ZM994 1257Q858 1385 650 1385Q486 1385 377 1266Q287 1168 287 1040Q287 939 325 867Q394 735 558 735Q724 735 846 878Q871 907 897 962Q953 1080 987 1227Q989 1236 990
1241L994 1257Z" />
<glyph unicode=":" glyph-name="colon" horiz-adv-x="655" d="M329 1043Q369 1043 406 1019Q473 976 473 897Q473 839 433 797Q390 752 326 752Q291 752 260 769Q182 810 182 899Q182 966 234 1009Q275 1043 329 1043ZM329 338Q369 338 406 314Q473 271 473 192Q473
134 433 92Q390 47 326 47Q291 47 260 63Q182 105 182 194Q182 261 234 304Q275 338 329 338Z" />
<glyph unicode=";" glyph-name="semicolon" horiz-adv-x="655" d="M329 1043Q369 1043 406 1019Q473 976 473 897Q473 839 433 797Q390 752 326 752Q291 752 260 769Q182 810 182 899Q182 966 234 1009Q275 1043 329 1043ZM328 338Q382 338 422 301Q473 254 473
172Q473 60 414 -44Q355 -147 263 -202Q241 -215 222 -215Q176 -215 176 -171Q176 -149 210 -123Q279 -69 309 7Q318 30 318 38Q318 52 295 53Q264 56 241 73Q182 117 182 194Q182 262 234 304Q275 338 328 338Z" />
<glyph unicode="&lt;" glyph-name="less" horiz-adv-x="1556" d="M309 778L1393 281Q1431 263 1431 227Q1431 207 1419 189Q1403 163 1370 163Q1353 163 1333 172L180 709Q129 732 129 778Q129 824 180 848L1333 1384Q1352 1393 1371 1393Q1403 1393 1419 1367Q1431
1349 1431 1329Q1431 1294 1393 1276L309 778Z" />
<glyph unicode="=" glyph-name="equal" horiz-adv-x="1556" d="M188 1049H1368Q1383 1049 1396 1041Q1427 1024 1427 984Q1427 949 1402 929Q1388 918 1368 918H188Q173 918 160 925Q129 943 129 983Q129 1018 154 1038Q168 1049 188 1049ZM188 639H1368Q1383
639 1396 631Q1427 614 1427 574Q1427 539 1402 519Q1388 508 1368 508H188Q173 508 160 515Q129 533 129 573Q129 608 154 628Q168 639 188 639Z" />
<glyph unicode="&gt;" glyph-name="greater" horiz-adv-x="1556" d="M1248 778L164 1276Q126 1293 126 1330Q126 1349 138 1367Q154 1393 186 1393Q205 1393 224 1384L1377 848Q1428 824 1428 779Q1428 732 1377 709L224 172Q204 163 186 163Q153 163 138 189Q126
208 126 226Q126 263 164 281L1248 778Z" />
<glyph unicode="?" glyph-name="question" horiz-adv-x="1311" d="M675 515V504Q675 482 660 467Q637 444 602 444Q530 444 530 519Q530 643 584 728Q646 825 792 926Q933 1023 933 1159Q933 1271 841 1332Q761 1385 636 1385Q504 1385 402 1292Q359 1252 329
1201Q298 1145 243 1145Q215 1145 193 1161Q161 1184 161 1224Q161 1290 253 1379Q408 1528 643 1528Q844 1528 978 1439Q1128 1339 1128 1162Q1128 1035 1039 943Q990 893 884 827Q675 697 675 515ZM596 321Q632 321 666 301Q732 261 732 184Q732 131 696 92Q656
47 594 47Q562 47 533 62Q458 100 458 185Q458 242 498 281Q539 321 596 321Z" />
<glyph unicode="@" glyph-name="at" horiz-adv-x="1720" d="M1096 1087L1135 1163Q1150 1192 1185 1192Q1242 1192 1242 1139Q1242 1124 1229 1080Q1181 916 1162 714Q1157 664 1157 622Q1157 471 1254 471Q1326 471 1397 582Q1470 696 1470 863Q1470 1023 1381
1157Q1214 1409 880 1409Q645 1409 472 1264Q248 1076 248 772Q248 506 414 331Q589 146 877 146Q1059 146 1192 191Q1304 229 1405 312Q1430 332 1453 332Q1474 332 1493 314Q1514 294 1514 265Q1514 238 1495 222Q1403 140 1263 90Q1091 27 879 27Q491 27 276
289Q113 487 113 773Q113 1033 270 1235Q399 1400 596 1476Q732 1528 879 1528Q1126 1528 1315 1397Q1504 1266 1571 1053Q1602 953 1602 854Q1602 651 1496 500Q1395 354 1250 354Q1072 354 1063 539Q958 342 763 342Q591 342 507 484Q455 573 455 707Q455 912
578 1061Q702 1210 876 1210Q1031 1210 1096 1087ZM880 1085Q779 1085 701 1000Q600 888 600 711Q600 624 631 564Q680 469 776 469Q887 469 969 614Q1045 748 1045 889Q1045 965 1007 1019Q961 1085 880 1085Z" />
<glyph unicode="A" glyph-name="A" horiz-adv-x="1434" d="M408 522L234 104Q209 45 151 45Q126 45 104 57Q59 81 59 134Q59 153 68 174L590 1417Q629 1510 718 1510Q805 1510 844 1417L1366 174Q1375 153 1375 132Q1375 79 1330 57Q1309 46 1284 46Q1225 46 1200
104L1026 522H408ZM717 1337L463 676H971L717 1337Z" />
<glyph unicode="B" glyph-name="B" horiz-adv-x="1470" d="M1026 822Q1138 792 1209 738Q1347 632 1347 459Q1347 230 1147 129Q1014 61 794 61H356Q184 61 184 229V1329Q184 1495 356 1495H774Q1007 1495 1139 1407Q1280 1311 1280 1129Q1280 898 1026 822ZM362
883H798Q908 883 988 928Q1106 994 1106 1121Q1106 1236 1005 1294Q928 1339 806 1339H405Q379 1339 371 1332T362 1300V883ZM362 736V258Q362 215 407 215H802Q1169 215 1169 470Q1169 617 1026 689Q932 736 798 736H362Z" />
<glyph unicode="C" glyph-name="C" horiz-adv-x="1499" d="M791 1528Q1006 1528 1180 1416Q1269 1359 1313 1295Q1341 1254 1341 1225Q1341 1193 1313 1165Q1286 1139 1251 1139Q1220 1139 1199 1161Q1196 1164 1173 1194Q1036 1370 794 1370Q569 1370 428 1182Q305
1018 305 779Q305 573 401 419Q546 187 809 187Q1069 187 1211 403Q1234 439 1278 439Q1314 439 1344 413Q1374 387 1374 350Q1374 307 1320 240Q1145 27 809 27Q563 27 389 163Q123 372 123 779Q123 1084 293 1293Q485 1528 791 1528Z" />
<glyph unicode="D" glyph-name="D" horiz-adv-x="1536" d="M366 1495H653Q902 1495 1067 1408Q1236 1319 1329 1137Q1411 977 1411 782Q1411 528 1291 349Q1099 61 653 61H366Q184 61 184 239V1317Q184 1495 366 1495ZM358 1292V264Q358 219 409 219H655Q873 219
995 294Q1227 438 1227 784Q1227 1025 1098 1177Q1001 1290 853 1320Q766 1337 655 1337H411Q358 1337 358 1292Z" />
<glyph unicode="E" glyph-name="E" horiz-adv-x="1327" d="M362 733V258Q362 219 401 219H1191Q1218 219 1237 203Q1263 180 1263 139Q1263 97 1234 74Q1217 61 1191 61H356Q184 61 184 231V1325Q184 1495 356 1495H1161Q1187 1495 1205 1479Q1232 1457 1232 1416Q1232
1374 1203 1350Q1186 1337 1161 1337H401Q362 1337 362 1298V885H1085Q1104 885 1119 876Q1153 857 1153 809Q1153 733 1085 733H362Z" />
<glyph unicode="F" glyph-name="F" horiz-adv-x="1266" d="M366 733V127Q366 93 343 72Q315 47 273 47Q221 47 196 83Q184 101 184 127V1325Q184 1495 356 1495H1144Q1170 1495 1189 1479Q1214 1457 1214 1416Q1214 1337 1144 1337H405Q366 1337 366 1298V885H1054Q1073
885 1088 876Q1122 857 1122 809Q1122 733 1054 733H366Z" />
<glyph unicode="G" glyph-name="G" horiz-adv-x="1548" d="M1251 587H901Q872 587 853 605Q829 629 829 666Q829 714 867 733Q882 741 901 741H1308Q1423 741 1423 626V117Q1423 98 1414 83Q1394 47 1343 47Q1265 47 1265 117V317Q1178 161 1027 85Q913 27 785
27Q549 27 377 167Q122 374 122 776Q122 1032 243 1224Q352 1397 529 1474Q652 1528 790 1528Q1008 1528 1182 1416Q1270 1359 1315 1295Q1343 1255 1343 1225Q1343 1193 1315 1165Q1288 1139 1253 1139Q1221 1139 1200 1161Q1198 1164 1174 1194Q1038 1370 795
1370Q570 1370 430 1182Q306 1017 306 775Q306 563 402 411Q467 306 569 247Q671 187 791 187Q987 187 1125 346Q1208 441 1251 587Z" />
<glyph unicode="H" glyph-name="H" horiz-adv-x="1532" d="M360 731V125Q360 96 341 75Q316 47 272 47Q222 47 196 83Q184 100 184 125V1430Q184 1455 196 1473Q221 1510 272 1510Q323 1510 347 1473Q360 1455 360 1430V887H1171V1430Q1171 1455 1183 1473Q1208
1510 1259 1510Q1310 1510 1334 1473Q1347 1455 1347 1430V125Q1347 96 1328 75Q1303 47 1259 47Q1209 47 1183 83Q1171 100 1171 125V731H360Z" />
<glyph unicode="I" glyph-name="I" horiz-adv-x="819" d="M321 1349H161Q96 1349 96 1423Q96 1495 161 1495H657Q722 1495 722 1423Q722 1384 697 1363Q681 1349 657 1349H497V206H657Q722 206 722 134Q722 95 697 75Q681 61 657 61H161Q96 61 96 134Q96 206 161
206H321V1349Z" />
<glyph unicode="J" glyph-name="J" horiz-adv-x="1053" d="M870 1430V477Q870 310 805 201Q700 27 452 27Q209 27 90 216Q25 319 25 399Q25 459 81 478Q97 484 116 484Q157 484 179 460Q189 447 206 396Q271 189 460 189Q694 189 694 479V1430Q694 1472 727 1493Q752
1509 782 1509Q818 1509 845 1486Q870 1465 870 1430Z" />
<glyph unicode="K" glyph-name="K" horiz-adv-x="1393" d="M356 600V125Q356 96 337 75Q312 47 269 47Q219 47 194 83Q182 100 182 125V1430Q182 1460 200 1480Q225 1509 270 1509Q316 1509 341 1475Q356 1457 356 1430V819L1099 1483Q1127 1507 1159 1507Q1186
1507 1212 1485Q1239 1462 1239 1425Q1239 1390 1208 1362L675 887L1312 195Q1339 166 1339 132Q1339 91 1307 65Q1280 44 1246 44Q1205 44 1177 76L553 778L356 600Z" />
<glyph unicode="L" glyph-name="L" horiz-adv-x="1262" d="M360 1429V268Q360 221 407 221H1157Q1183 221 1202 205Q1228 182 1228 141Q1228 93 1193 71Q1178 61 1157 61H356Q184 61 184 233V1429Q184 1472 217 1493Q241 1509 272 1509Q308 1509 335 1486Q360
1465 360 1429Z" />
<glyph unicode="M" glyph-name="M" horiz-adv-x="1835" d="M356 1298V125Q356 96 337 75Q312 47 269 47Q223 47 198 80Q184 98 184 125V1364Q184 1445 254 1488Q294 1512 344 1512Q448 1512 491 1401L917 297L1343 1401Q1386 1512 1485 1512Q1534 1512 1570 1493Q1650
1451 1650 1364V125Q1650 92 1627 70Q1603 47 1564 47Q1515 47 1490 83Q1478 101 1478 125V1298L1048 193Q1007 88 916 88Q827 88 786 193L356 1298Z" />
<glyph unicode="N" glyph-name="N" horiz-adv-x="1532" d="M1175 354V1434Q1175 1466 1197 1486Q1223 1509 1261 1509Q1310 1509 1335 1473Q1347 1456 1347 1434V197Q1347 50 1243 50Q1173 50 1124 127L356 1323V125Q356 91 333 70Q306 47 268 47Q222 47 197 81Q184
99 184 125V1352Q184 1462 271 1499Q302 1512 344 1512Q426 1512 473 1440L1175 354Z" />
<glyph unicode="O" glyph-name="O" horiz-adv-x="1577" d="M792 1528Q990 1528 1155 1411Q1298 1309 1378 1135Q1454 971 1454 778Q1454 563 1362 386Q1287 240 1162 148Q998 27 786 27Q497 27 306 250Q123 464 123 778Q123 1072 287 1281Q482 1528 792 1528ZM787
1370Q589 1370 451 1206Q307 1035 307 776Q307 624 361 497Q404 395 475 322Q608 187 791 187Q972 187 1105 326Q1270 498 1270 777Q1270 1034 1128 1204Q989 1370 787 1370Z" />
<glyph unicode="P" glyph-name="P" horiz-adv-x="1368" d="M362 637V125Q362 96 343 76Q317 47 271 47Q220 47 196 83Q184 100 184 125V1319Q184 1495 362 1495H753Q984 1495 1134 1385Q1284 1274 1284 1070Q1284 866 1155 760Q1005 637 751 637H362ZM362 793H778Q886
793 961 832Q1104 904 1104 1069Q1104 1238 951 1306Q878 1339 780 1339H407Q362 1339 362 1292V793Z" />
<glyph unicode="Q" glyph-name="Q" horiz-adv-x="1577" d="M1142 150Q955 27 768 27Q474 27 283 252Q102 466 102 780Q102 1047 242 1247Q347 1399 508 1472Q631 1528 769 1528Q1070 1528 1262 1290Q1433 1078 1433 778Q1433 454 1263 264Q1325 216 1400 170Q1457
134 1457 85Q1457 53 1436 27Q1408 -7 1369 -7Q1317 -7 1142 150ZM1126 373Q1251 542 1251 774Q1251 991 1148 1150Q1079 1257 977 1315Q879 1370 769 1370Q576 1370 439 1217Q286 1046 286 777Q286 583 372 433Q434 323 533 258Q641 187 769 187Q908 187 1015
260Q895 360 749 455Q697 489 697 530Q697 559 722 583Q745 605 773 605Q809 605 866 566Q998 476 1126 373Z" />
<glyph unicode="R" glyph-name="R" horiz-adv-x="1393" d="M360 729V125Q360 91 337 70Q310 47 271 47Q221 47 196 83Q184 100 184 125V1325Q184 1495 354 1495H772Q980 1495 1102 1427Q1166 1392 1210 1330Q1278 1233 1278 1113Q1278 787 892 739L1314 194Q1336
166 1336 130Q1336 86 1299 63Q1272 47 1241 47Q1189 47 1159 90L706 729H360ZM360 885H790Q927 885 1007 938Q1098 998 1098 1118Q1098 1245 985 1300Q910 1337 790 1337H401Q360 1337 360 1296V885Z" />
<glyph unicode="S" glyph-name="S" horiz-adv-x="1339" d="M665 1528Q913 1528 1080 1396Q1150 1341 1150 1293Q1150 1260 1127 1235Q1100 1205 1059 1205Q1024 1205 998 1231Q858 1372 667 1372Q554 1372 473 1337Q336 1279 336 1151Q336 1060 427 999Q498 951
722 886Q956 819 1060 757Q1241 650 1241 447Q1241 235 1065 121Q920 27 690 27Q411 27 222 182Q132 256 132 310Q132 337 150 361Q174 393 215 393Q255 393 314 334Q377 271 478 229Q579 187 694 187Q842 187 940 242Q1067 313 1067 445Q1067 563 958 623Q871
671 627 746Q424 808 308 882Q164 974 164 1148Q164 1352 361 1459Q488 1528 665 1528Z" />
<glyph unicode="T" glyph-name="T" horiz-adv-x="1393" d="M608 1337H112Q43 1337 43 1417Q43 1460 71 1482Q88 1495 112 1495H1280Q1306 1495 1324 1479Q1349 1457 1349 1416Q1349 1337 1280 1337H784V127Q784 102 771 83Q747 47 696 47Q645 47 620 83Q608 101
608 127V1337Z" />
<glyph unicode="U" glyph-name="U" horiz-adv-x="1536" d="M360 1430V649Q360 187 768 187Q1175 187 1175 649V1430Q1175 1458 1191 1478Q1217 1509 1263 1509Q1313 1509 1337 1475Q1351 1456 1351 1430V657Q1351 380 1251 243Q1092 27 766 27Q446 27 287 239Q184
378 184 657V1430Q184 1472 217 1493Q241 1509 272 1509Q310 1509 335 1487Q360 1464 360 1430Z" />
<glyph unicode="V" glyph-name="V" horiz-adv-x="1393" d="M696 264L1161 1450Q1184 1510 1239 1510Q1266 1510 1289 1499Q1338 1475 1338 1425Q1338 1407 1329 1384L829 160Q783 47 696 47Q609 47 563 160L63 1384Q54 1407 54 1424Q54 1470 97 1495Q124 1511
152 1511Q207 1511 231 1450L696 264Z" />
<glyph unicode="W" glyph-name="W" horiz-adv-x="1892" d="M535 299L826 1393Q856 1509 946 1509Q1036 1509 1067 1393L1358 299L1663 1440Q1682 1509 1748 1509Q1768 1509 1788 1502Q1845 1482 1845 1424Q1845 1411 1839 1391L1485 147Q1456 47 1357 47Q1261
47 1233 154L946 1253L660 154Q632 47 537 47Q436 47 408 147L53 1391Q48 1410 48 1425Q48 1476 98 1499Q122 1510 147 1510Q211 1510 230 1440L535 299Z" />
<glyph unicode="X" glyph-name="X" horiz-adv-x="1393" d="M586 805L149 1358Q126 1387 126 1419Q126 1459 160 1485Q191 1508 224 1508Q260 1508 291 1468L696 940L1102 1468Q1132 1508 1168 1508Q1198 1508 1229 1487Q1266 1462 1266 1419Q1266 1387 1243 1358L807
805L1309 207Q1334 176 1334 144Q1334 101 1294 71Q1262 48 1232 48Q1194 48 1161 90L696 676L231 90Q198 48 161 48Q130 48 98 71Q58 101 58 144Q58 176 84 207L586 805Z" />
<glyph unicode="Y" glyph-name="Y" horiz-adv-x="1376" d="M602 670L74 1368Q55 1393 55 1421Q55 1468 95 1493Q121 1510 149 1510Q193 1510 221 1470L688 817L1155 1470Q1183 1510 1227 1510Q1253 1510 1278 1495Q1321 1470 1321 1421Q1321 1393 1302 1368L774
670V125Q774 91 750 69T688 47Q641 47 616 80Q602 98 602 125V670Z" />
<glyph unicode="Z" glyph-name="Z" horiz-adv-x="1352" d="M1000 1337H207Q180 1337 162 1353Q135 1376 135 1417Q135 1459 165 1482Q182 1495 207 1495H1114Q1222 1495 1222 1409Q1222 1355 1174 1294L316 221H1192Q1219 221 1237 205Q1264 182 1264 141Q1264
93 1229 71Q1213 61 1192 61H205Q132 61 103 109Q90 131 90 159Q90 213 131 264L1000 1337Z" />
<glyph unicode="[" glyph-name="bracketleft" horiz-adv-x="922" d="M417 1528H716Q778 1528 778 1460Q778 1393 716 1393H442Q401 1393 401 1352V-254Q401 -295 442 -295H716Q778 -295 778 -362Q778 -430 716 -430H417Q266 -430 266 -279V1377Q266 1528 417 1528Z" />
<glyph unicode="\" glyph-name="backslash" horiz-adv-x="1352" d="M502 938L172 1372Q156 1394 156 1422Q156 1468 191 1493Q218 1513 246 1513Q283 1513 309 1477L676 963L1043 1477Q1069 1513 1106 1513Q1134 1513 1161 1493Q1196 1468 1196 1422Q1196 1393
1180 1372L850 938H1143Q1167 938 1185 923Q1209 902 1209 866Q1209 822 1176 802Q1162 793 1143 793H760V600H1143Q1166 600 1183 586Q1209 563 1209 526Q1209 484 1176 462Q1162 453 1143 453H760V125Q760 92 736 70T676 47Q630 47 605 81Q592 99 592 125V453H209Q185
453 169 467Q143 490 143 526Q143 570 175 591Q190 600 209 600H592V793H209Q182 793 164 811Q143 833 143 866Q143 906 173 927Q188 938 209 938H502Z" />
<glyph unicode="]" glyph-name="bracketright" horiz-adv-x="922" d="M205 1528H504Q655 1528 655 1377V-279Q655 -430 504 -430H205Q143 -430 143 -363Q143 -295 205 -295H479Q520 -295 520 -254V1352Q520 1393 479 1393H205Q143 1393 143 1460Q143 1528 205 1528Z" />
<glyph unicode="^" glyph-name="asciicircum" horiz-adv-x="1024" d="M512 1145L150 719Q127 692 99 692Q76 692 56 710Q36 728 36 751Q36 778 60 805L434 1229Q469 1268 510 1268Q555 1268 590 1229L965 805Q988 779 988 752Q988 730 971 713Q951 692 923 692Q898
692 875 719L512 1145Z" />
<glyph unicode="_" glyph-name="underscore" horiz-adv-x="1024" d="M0 -115H1024V-246H0V-115Z" />
<glyph unicode="`" glyph-name="grave" horiz-adv-x="1024" d="M440 1538L651 1313Q673 1289 673 1262Q673 1237 653 1219Q633 1201 611 1201Q586 1201 561 1223L327 1425Q295 1454 295 1487Q295 1521 325 1548Q349 1569 377 1569Q411 1569 440 1538Z" />
<glyph unicode="a" glyph-name="a" horiz-adv-x="1245" d="M909 893V987Q909 1017 928 1037Q952 1063 992 1063Q1047 1063 1068 1021Q1075 1006 1075 987V119Q1075 47 1002 47Q937 47 932 115L919 262Q847 115 704 56Q640 29 570 29Q347 29 217 190Q102 332 102
548Q102 728 194 863Q330 1061 568 1061Q766 1061 909 893ZM909 530V600Q909 684 859 760Q795 856 685 891Q635 907 584 907Q449 907 363 806Q276 705 276 547Q276 404 349 304Q437 183 584 183Q717 183 817 301Q909 410 909 530Z" />
<glyph unicode="b" glyph-name="b" horiz-adv-x="1249" d="M328 262L315 115Q310 47 245 47Q172 47 172 119V1432Q172 1453 182 1469Q204 1509 258 1509Q305 1509 330 1476Q344 1458 344 1432V893Q476 1061 678 1061Q885 1061 1020 905Q1145 760 1145 547Q1145
324 1022 181Q892 29 674 29Q550 29 443 114Q373 169 328 262ZM338 600V530Q338 398 444 285Q540 183 664 183Q795 183 882 283Q971 386 971 546Q971 725 863 829Q782 907 663 907Q592 907 527 878Q386 814 347 671Q338 636 338 600Z" />
<glyph unicode="c" glyph-name="c" horiz-adv-x="1106" d="M608 1061Q806 1061 940 951Q1001 901 1001 852Q1001 818 972 793Q944 768 910 768Q873 768 834 812Q750 907 606 907Q449 907 352 782Q274 682 274 547Q274 374 403 263Q496 183 610 183Q768 183 876
307Q901 335 933 335Q975 335 1005 299Q1025 275 1025 246Q1025 204 979 160Q842 29 614 29Q340 29 193 237Q98 372 98 547Q98 784 272 938Q412 1061 608 1061Z" />
<glyph unicode="d" glyph-name="d" horiz-adv-x="1249" d="M905 893V1432Q905 1453 915 1469Q938 1509 991 1509Q1038 1509 1063 1476Q1077 1458 1077 1432V119Q1077 47 1004 47Q939 47 934 115L921 262Q849 115 706 56Q642 29 572 29Q349 29 219 190Q104 332
104 548Q104 728 196 863Q332 1061 570 1061Q771 1061 905 893ZM911 530V600Q911 684 861 760Q797 856 687 891Q637 907 586 907Q451 907 365 806Q278 705 278 547Q278 404 351 304Q439 183 586 183Q719 183 819 301Q911 410 911 530Z" />
<glyph unicode="e" glyph-name="e" horiz-adv-x="1208" d="M282 514Q286 403 340 324Q438 183 623 183Q794 183 921 291Q954 319 987 319Q1020 319 1045 294Q1069 269 1069 235Q1069 191 1013 146Q865 29 622 29Q448 29 320 116Q195 200 139 344Q102 439 102 548Q102
748 222 889Q370 1061 614 1061Q814 1061 956 930Q1093 804 1093 633Q1093 514 989 514H282ZM290 649H874Q906 649 906 676Q906 716 872 774Q791 909 612 909Q463 909 368 811Q303 745 290 649Z" />
<glyph unicode="f" glyph-name="f" horiz-adv-x="881" d="M326 1028V1261Q326 1369 390 1440Q470 1528 605 1528Q727 1528 813 1449Q864 1403 864 1357Q864 1310 828 1288Q805 1275 778 1275Q730 1275 706 1322Q675 1383 603 1383Q545 1383 516 1336Q496 1305
496 1261V1028H760Q830 1028 830 952Q830 909 802 887Q785 874 760 874H496V124Q496 97 480 78Q455 47 411 47Q365 47 340 80Q326 97 326 124V874H105Q78 874 60 890Q33 912 33 952Q33 1001 71 1020Q86 1028 105 1028H326Z" />
<glyph unicode="g" glyph-name="g" horiz-adv-x="1290" d="M950 901L975 993Q990 1048 1037 1048Q1106 1048 1106 985V16Q1106 -187 973 -311Q942 -341 894 -364Q777 -420 625 -420Q365 -420 229 -287Q183 -242 183 -205Q183 -180 200 -158Q229 -123 264 -123Q293
-123 334 -162Q445 -270 631 -270Q806 -270 888 -152Q938 -81 938 18V235Q911 178 867 138Q763 45 610 45Q504 45 406 93Q234 177 166 361Q133 451 133 553Q133 740 244 879Q326 981 446 1029Q528 1061 614 1061Q748 1061 854 992Q911 956 950 901ZM938 551V583Q938
662 893 744Q799 914 627 914Q469 914 376 782Q307 685 307 551Q307 415 373 321Q464 192 627 192Q776 192 868 326Q938 428 938 551Z" />
<glyph unicode="h" glyph-name="h" horiz-adv-x="1212" d="M348 881Q404 951 478 996Q585 1061 700 1061Q881 1061 975 923Q1042 824 1042 674V125Q1042 92 1019 70Q994 47 955 47Q905 47 880 83Q868 101 868 125V645Q868 907 678 907Q562 907 456 807Q348 704
348 588V125Q348 92 325 70Q301 47 261 47Q210 47 186 83Q174 100 174 125V1434Q174 1462 192 1481Q217 1509 262 1509Q313 1509 337 1473Q348 1456 348 1434V881Z" />
<glyph unicode="i" glyph-name="i" horiz-adv-x="573" d="M375 963V127Q375 102 362 83Q338 47 287 47Q236 47 211 83Q199 102 199 127V963Q199 1002 230 1024Q254 1042 287 1042Q325 1042 350 1020Q375 997 375 963ZM287 1530Q323 1530 356 1510Q420 1471 420
1397Q420 1346 386 1308Q346 1264 286 1264Q253 1264 225 1279Q154 1317 154 1397Q154 1455 195 1494Q234 1530 287 1530Z" />
<glyph unicode="j" glyph-name="j" horiz-adv-x="676" d="M490 964V-125Q490 -269 413 -345Q337 -420 199 -420Q52 -420 -26 -323Q-66 -273 -66 -232Q-66 -189 -37 -164Q-15 -146 16 -146Q65 -146 91 -196Q129 -270 199 -270Q263 -270 298 -213Q320 -176 320 -123V964Q320
1000 348 1022Q372 1042 404 1042Q440 1042 465 1021Q490 999 490 964ZM404 1530Q440 1530 473 1510Q537 1471 537 1397Q537 1346 503 1308Q463 1264 403 1264Q370 1264 342 1279Q271 1317 271 1397Q271 1455 312 1494Q351 1530 404 1530Z" />
<glyph unicode="k" glyph-name="k" horiz-adv-x="1114" d="M346 426V125Q346 104 336 87Q313 47 260 47Q213 47 188 80Q174 98 174 125V1434Q174 1454 183 1470Q206 1509 260 1509Q311 1509 335 1473Q346 1456 346 1434V621L854 1022Q878 1041 910 1041Q949 1041
971 1017Q993 992 993 961Q993 927 954 897L602 625L1018 190Q1040 167 1040 135Q1040 95 1010 69Q985 47 949 47Q906 47 876 80L475 528L346 426Z" />
<glyph unicode="l" glyph-name="l" horiz-adv-x="573" d="M375 1432V125Q375 96 356 75Q331 47 287 47Q237 47 211 83Q199 100 199 125V1432Q199 1470 230 1492Q254 1509 287 1509Q325 1509 350 1487Q375 1466 375 1432Z" />
<glyph unicode="m" glyph-name="m" horiz-adv-x="1638" d="M327 897Q430 1061 616 1061Q800 1061 858 895Q972 1061 1161 1061Q1313 1061 1392 953Q1450 873 1450 748V123Q1450 91 1428 70Q1403 47 1365 47Q1316 47 1291 83Q1280 99 1280 123V737Q1280 796 1259
839Q1224 911 1139 911Q1043 911 968 827Q901 753 901 659V123Q901 95 883 75Q857 47 816 47Q770 47 746 80Q733 98 733 123V731Q733 802 706 849Q671 911 598 911Q499 911 418 821Q352 747 352 657V123Q352 91 329 70Q303 47 265 47Q218 47 195 80Q182 98 182
123V967Q182 1041 249 1041Q304 1041 315 973L327 897Z" />
<glyph unicode="n" glyph-name="n" horiz-adv-x="1208" d="M321 854Q384 950 477 1003Q579 1061 693 1061Q884 1061 977 913Q1038 816 1038 666V125Q1038 104 1028 87Q1004 47 950 47Q903 47 878 80Q864 98 864 125V643Q864 907 671 907Q550 907 437 790Q344 693
344 590V125Q344 94 324 73Q300 47 258 47Q208 47 182 83Q170 100 170 125V973Q170 1044 237 1044Q302 1044 309 975L321 854Z" />
<glyph unicode="o" glyph-name="o" horiz-adv-x="1188" d="M595 1061Q811 1061 950 919Q1093 772 1093 547Q1093 409 1038 295Q966 149 825 80Q721 29 593 29Q352 29 211 199Q94 340 94 547Q94 704 168 829Q267 995 454 1044Q521 1061 595 1061ZM592 907Q459 907
371 816Q272 715 272 546Q272 432 321 343Q409 183 594 183Q740 183 831 291Q915 392 915 546Q915 714 816 816Q728 907 592 907Z" />
<glyph unicode="p" glyph-name="p" horiz-adv-x="1253" d="M346 197V-342Q346 -363 336 -380Q313 -420 260 -420Q213 -420 188 -387Q174 -369 174 -342V971Q174 1042 247 1042Q309 1042 317 975L332 862Q391 962 490 1014Q578 1061 677 1061Q901 1061 1032 899Q1147
758 1147 543Q1147 362 1055 227Q919 29 679 29Q478 29 346 197ZM340 559V489Q340 421 374 357Q418 273 501 226Q577 183 666 183Q800 183 886 284Q973 385 973 542Q973 724 863 829Q781 907 665 907Q531 907 432 789Q340 680 340 559Z" />
<glyph unicode="q" glyph-name="q" horiz-adv-x="1253" d="M921 862L936 975Q944 1042 1006 1042Q1079 1042 1079 971V-342Q1079 -363 1069 -380Q1046 -420 993 -420Q946 -420 921 -387Q907 -369 907 -342V197Q775 29 572 29Q366 29 231 185Q106 329 106 544Q106
766 228 909Q359 1061 578 1061Q684 1061 779 1005Q866 955 921 862ZM913 489V559Q913 698 800 813Q706 907 588 907Q456 907 369 807Q280 704 280 543Q280 409 345 313Q432 183 589 183Q676 183 752 226Q870 294 904 419Q913 454 913 489Z" />
<glyph unicode="r" glyph-name="r" horiz-adv-x="850" d="M342 641V125Q342 96 323 75Q298 47 255 47Q209 47 184 80Q170 98 170 125V969Q170 989 179 1005Q201 1042 252 1042Q298 1042 321 1010Q334 993 334 969V842Q376 946 461 1006Q547 1067 641 1067Q745
1067 805 1018Q849 983 849 941Q849 913 828 888Q802 858 763 858Q729 858 695 883Q664 905 606 905Q440 905 342 641Z" />
<glyph unicode="s" glyph-name="s" horiz-adv-x="1073" d="M541 1061Q732 1061 862 980Q927 939 927 891Q927 864 910 842Q885 809 847 809Q821 809 778 840Q673 916 532 916Q435 916 373 882Q317 850 317 795Q317 733 377 701Q404 686 477 664Q739 586 827 535Q975
450 975 316Q975 181 860 105Q746 29 546 29Q291 29 152 150Q105 190 105 230Q105 254 121 276Q145 310 183 310Q211 310 255 275Q375 179 550 179Q787 179 787 308Q787 369 736 401Q659 448 369 539Q139 611 139 793Q139 945 298 1016Q397 1061 541 1061Z" />
<glyph unicode="t" glyph-name="t" horiz-adv-x="881" d="M354 1028V1268Q354 1302 377 1323Q401 1347 441 1347Q498 1347 519 1302Q526 1287 526 1268V1028H755Q785 1028 803 1009Q825 987 825 952Q825 905 791 883Q775 874 755 874H526V126Q526 93 503 71Q479
47 440 47Q382 47 361 92Q354 107 354 126V874H125Q106 874 92 882Q55 902 55 952Q55 993 84 1015Q100 1028 125 1028H354Z" />
<glyph unicode="u" glyph-name="u" horiz-adv-x="1208" d="M887 236Q824 140 731 87Q629 29 515 29Q323 29 231 176Q170 274 170 424V965Q170 985 180 1002Q203 1042 258 1042Q305 1042 330 1009Q344 991 344 965V446Q344 183 538 183Q658 183 771 300Q864 397
864 500V965Q864 996 884 1016Q909 1042 950 1042Q1000 1042 1025 1006Q1038 989 1038 965V117Q1038 45 971 45Q906 45 899 115L887 236Z" />
<glyph unicode="v" glyph-name="v" horiz-adv-x="1085" d="M543 231L864 989Q887 1044 940 1044Q964 1044 984 1034Q1032 1011 1032 963Q1032 944 1024 926L682 154Q635 47 542 47Q451 47 403 154L61 926Q53 944 53 962Q53 1007 95 1031Q118 1044 144 1044Q198
1044 221 989L543 231Z" />
<glyph unicode="w" glyph-name="w" horiz-adv-x="1536" d="M455 248L652 932Q683 1042 769 1042Q853 1042 885 932L1082 248L1313 981Q1333 1043 1390 1043Q1412 1043 1431 1035Q1481 1014 1481 964Q1481 950 1475 932L1207 139Q1175 47 1088 47Q991 47 959 162L768
848L578 162Q546 47 449 47Q361 47 330 139L62 932Q56 949 56 965Q56 1013 105 1035Q125 1043 147 1043Q204 1043 224 981L455 248Z" />
<glyph unicode="x" glyph-name="x" horiz-adv-x="1085" d="M428 567L133 903Q109 931 109 961Q109 1000 144 1028Q167 1046 194 1046Q231 1046 262 1010L543 678L823 1010Q854 1046 891 1046Q924 1046 950 1020Q976 994 976 961Q976 930 952 903L657 567L995 197Q1023
166 1023 135Q1023 103 998 77Q972 48 935 48Q899 48 872 78L543 453L213 78Q187 48 150 48Q114 48 90 74Q63 103 63 136Q63 167 90 197L428 567Z" />
<glyph unicode="y" glyph-name="y" horiz-adv-x="1126" d="M473 104L58 920Q46 943 46 963Q46 1005 84 1031Q108 1046 134 1046Q181 1046 207 995L574 285L924 991Q951 1046 1005 1046Q1036 1046 1061 1029Q1098 1004 1098 962Q1098 937 1084 909L422 -358Q391
-419 338 -419Q315 -419 294 -408Q251 -385 251 -337Q251 -310 267 -281L473 104Z" />
<glyph unicode="z" glyph-name="z" horiz-adv-x="1044" d="M703 874H162Q143 874 129 882Q92 902 92 952Q92 993 121 1015Q138 1028 162 1028H824Q937 1028 937 944Q937 897 897 856L287 215H920Q945 215 963 199Q987 177 987 137Q987 92 955 71Q940 61 920 61H183Q138
61 108 78Q65 103 65 153Q65 210 119 266L703 874Z" />
<glyph unicode="{" glyph-name="braceleft" horiz-adv-x="922" d="M374 549Q532 490 532 240V-199Q532 -295 641 -295H716Q778 -295 778 -362Q778 -430 716 -430H612Q397 -430 397 -207V240Q397 351 350 414Q310 466 250 473Q178 481 178 549Q178 616 250 625Q331
635 370 718Q397 775 397 858V1305Q397 1528 612 1528H716Q778 1528 778 1460Q778 1393 716 1393H641Q532 1393 532 1296V858Q532 607 374 549Z" />
<glyph unicode="|" glyph-name="bar" horiz-adv-x="614" d="M373 1468V-371Q373 -386 365 -399Q348 -430 308 -430Q279 -430 261 -413T242 -371V1468Q242 1497 263 1513Q283 1528 307 1528Q330 1528 349 1515Q373 1499 373 1468Z" />
<glyph unicode="}" glyph-name="braceright" horiz-adv-x="922" d="M547 549Q389 607 389 858V1296Q389 1393 280 1393H205Q143 1393 143 1460Q143 1528 205 1528H309Q524 1528 524 1305V858Q524 746 571 684Q611 631 671 625Q743 617 743 549Q743 482 671 473Q590
463 550 380Q524 324 524 240V-207Q524 -430 309 -430H205Q143 -430 143 -363Q143 -295 205 -295H280Q389 -295 389 -199V240Q389 490 547 549Z" />
<glyph unicode="~" glyph-name="asciitilde" horiz-adv-x="1024" d="M372 1462Q444 1462 541 1402Q626 1350 656 1350Q702 1350 758 1399Q784 1422 807 1422Q824 1422 841 1408Q862 1390 862 1361Q862 1329 834 1298Q763 1217 651 1217Q580 1217 483 1277Q396
1329 368 1329Q321 1329 266 1280Q240 1256 217 1256Q199 1256 183 1270Q162 1290 162 1317Q162 1352 194 1386Q267 1462 372 1462Z" />
</font>
</defs>
</svg>
